<svg viewBox="0 0 469 512" fill="none" xmlns="http://www.w3.org/2000/svg">
  <g clip-path="url(#clip0_3_3)">
    <path
      d="M415 289.585V313.426L325.333 357.583V332.635L388.548 301.5L325.333 270.287V245.417L415 289.585ZM235.667 332.635L172.452 301.5L235.667 270.287V245.417L146 289.585V313.426L235.667 357.583V332.635ZM314.652 212H291.361L246.404 391H269.639L314.652 212Z"
      fill="black" />
    <path
      d="M143.57 91.42H416.84C445.54 91.42 469 114.88 469 143.58V459.37C469 487.94 445.42 511.53 416.84 511.53H143.57C114.88 511.53 91.42 488.06 91.42 459.37V143.58C91.42 114.86 114.86 91.42 143.57 91.42ZM36.58 350.82C36.58 360.92 28.39 369.11 18.29 369.11C8.18998 369.11 0 360.92 0 350.82V52.16C0 23.44 23.44 0 52.16 0H325.42C335.52 0 343.71 8.19 343.71 18.29C343.71 28.39 335.52 36.58 325.42 36.58H52.16C43.62 36.58 36.58 43.62 36.58 52.16V350.82ZM416.84 128H143.57C135.04 128 128 135.04 128 143.58V459.37C128 467.89 135.06 474.95 143.57 474.95H416.84C425.43 474.95 432.42 467.96 432.42 459.37V143.58C432.42 135.06 425.36 128 416.84 128Z"
      fill="black" />
  </g>
  <defs>
    <clipPath id="clip0_3_3">
      <rect width="469" height="511.53" fill="white" />
    </clipPath>
  </defs>
</svg>