<svg viewBox="0 0 24 24" fill="none" xmlns="http://www.w3.org/2000/svg">
  <path
    d="M11.9976 2.25004C12.1236 2.25004 12.2481 2.25304 12.3726 2.25754V2.26054H12.4776C13.6239 2.31559 14.7514 2.57359 15.8075 3.02254C15.953 3.09904 16.091 3.18154 16.223 3.26854C17.1485 3.87154 17.822 4.71904 18.2975 5.70304C19.2635 7.70553 19.3625 10.1805 19.133 11.8545C18.7265 14.703 17.498 16.0875 16.2725 16.764C16.082 16.8692 15.8845 16.9614 15.6815 17.04C16.5785 15.8505 17.2475 14.199 17.2475 12C17.2475 7.20753 14.0706 5.02504 12.2931 4.53904L12.2676 4.53304L12.2421 4.52704C10.9101 4.23154 8.87456 4.24954 7.01006 5.27704C5.08557 6.33903 3.50157 8.39103 3.00957 11.841L3.00807 11.847C2.85807 12.942 2.81907 14.355 3.02907 15.8325C2.39504 14.3494 2.13888 12.7321 2.28354 11.1256C2.42819 9.51915 2.96915 7.97365 3.85792 6.62763C4.7467 5.28161 5.95553 4.17711 7.37609 3.41312C8.79666 2.64912 10.3846 2.24949 11.9976 2.25004ZM12.5436 0.0120442C9.55236 -0.12236 6.61897 0.866346 4.31943 2.78401C2.01989 4.70167 0.520342 7.40974 0.115248 10.3764C-0.289846 13.3431 0.428787 16.3541 2.13003 18.818C3.83127 21.282 6.3922 23.0209 9.30992 23.6934C12.2277 24.3658 15.2914 23.9232 17.8994 22.4524C20.5075 20.9816 22.4715 18.5889 23.4058 15.7442C24.34 12.8994 24.177 9.80821 22.9488 7.0775C21.7206 4.34679 19.5158 2.17391 16.7675 0.985543C15.5976 0.382544 14.1951 0.0345441 12.5436 0.0120442ZM21.4775 9.70953C21.8414 11.2144 21.8416 12.7843 21.4782 14.2893C21.1148 15.7943 20.3982 17.1911 19.3877 18.3641C18.3773 19.5371 17.102 20.4527 15.6674 21.0349C14.2328 21.6172 12.6802 21.8495 11.1381 21.7125C9.87806 21.6 8.90606 21.237 8.14706 20.7435C7.22006 20.139 6.54806 19.2915 6.07256 18.3075C5.10657 16.305 5.00757 13.83 5.23707 12.1575C5.64357 9.30753 6.87206 7.92303 8.09756 7.24803C8.29256 7.14003 8.48906 7.04853 8.68856 6.97203C7.79306 8.16003 7.12256 9.81003 7.12256 12.012C7.12256 16.8045 10.2996 18.987 12.0771 19.4715L12.1026 19.479L12.1281 19.4835C13.4601 19.7805 15.4955 19.7625 17.36 18.7335C19.2845 17.6715 20.8685 15.621 21.362 12.1695V12.165C21.4707 11.3513 21.5094 10.5298 21.4775 9.70953ZM12.1971 6.90003C13.2981 7.43103 14.9976 8.91453 14.9976 12C14.9976 15.108 13.2726 16.59 12.1731 17.1105C11.0721 16.5795 9.37256 15.0975 9.37256 12.0105C9.37256 8.90403 11.0976 7.42053 12.1971 6.90003Z"
    fill="currentColor" />
</svg>