<svg viewBox="0 0 424 512" fill="none" xmlns="http://www.w3.org/2000/svg">
  <path
    d="M86.37 413.44C74.61 413.44 74.61 395.55 86.37 395.55H189.1C188.9 398.5 188.79 401.48 188.79 404.49C188.79 407.5 188.9 410.48 189.1 413.44H86.37ZM121.68 246.35H104.5V266.31H78.08V183.72H119.7C138.64 183.72 148.11 193.89 148.11 214.24C148.11 225.43 145.64 233.71 140.71 239.08C138.86 241.11 136.3 242.83 133.05 244.24C129.79 245.65 126 246.35 121.68 246.35ZM104.5 204.86V225.21H110.58C113.75 225.21 116.07 224.88 117.52 224.22C118.97 223.56 119.7 222.04 119.7 219.66V210.41C119.7 208.03 118.97 206.51 117.52 205.85C116.07 205.19 113.75 204.86 110.58 204.86H104.5ZM158.02 266.31V183.72H195.02C209.91 183.72 220.13 186.89 225.68 193.23C231.23 199.57 234 210.17 234 225.01C234 239.86 231.23 250.45 225.68 256.79C220.13 263.13 209.91 266.31 195.02 266.31H158.02ZM195.42 204.86H184.45V245.16H195.42C199.03 245.16 201.65 244.75 203.28 243.91C204.91 243.07 205.72 241.16 205.72 238.16V211.86C205.72 208.87 204.91 206.95 203.28 206.12C201.65 205.28 199.03 204.86 195.42 204.86ZM294.13 235.65H271.66V266.31H245.23V183.72H299.41L296.11 204.86H271.66V215.96H294.13V235.65ZM265.81 24.26V53.36C265.81 119.02 281.12 122.83 334.89 122.83H356.92L265.81 24.26ZM360.14 140.18H338.66C277.64 140.18 248.46 136.09 248.46 53.9V17.35H56.82C35.12 17.35 17.35 35.13 17.35 56.82V321.61H219.2C214.56 327.08 210.37 332.95 206.69 339.15H17.35V428.98C17.35 450.6 35.2 468.45 56.82 468.45H205.86C209.39 474.57 213.42 480.37 217.88 485.79H56.82C25.63 485.79 0 460.17 0 428.98V56.82C0 25.55 25.55 3.75898e-07 56.82 3.75898e-07H263.15C264.493 -0.000394925 265.818 0.310994 267.021 0.909656C268.223 1.50832 269.271 2.37792 270.08 3.45L375.15 117.13C377.34 119.5 377.49 121.79 377.49 124.65V291.51C371.94 288.53 366.14 285.95 360.14 283.8V140.18Z"
    fill="#262626" />
  <path fill-rule="evenodd" clip-rule="evenodd"
    d="M316.95 297.45C376.07 297.45 424 345.38 424 404.5C424 463.61 376.07 511.54 316.95 511.54C257.83 511.54 209.9 463.61 209.9 404.5C209.9 345.38 257.83 297.45 316.95 297.45Z"
    fill="#FF0000" />
  <path
    d="M337.9 356.54L334.13 404.29L351.48 398.22C362.95 393.82 374.75 401.94 365.86 412.04C355.04 424.49 338.6 441.59 326.64 452.98C319.21 460.4 314.91 460.47 307.46 453.04C294.22 440.04 281.22 425.6 268.28 412.17C259.03 402.11 270.58 393.62 282.56 398.22L299.72 404.23C298.47 387.95 296.9 372.39 295.95 356.13C295.95 353.14 298.45 350.74 301.37 350.52C311.68 350.52 322.21 350.28 332.49 350.52C335.41 350.74 337.91 353.14 337.91 356.13L337.9 356.54Z"
    fill="white" />
</svg>