<svg viewBox="0 0 21 26" fill="none" xmlns="http://www.w3.org/2000/svg">
  <path
    d="M10.7334 21.4V13.4M10.7334 13.4L13.4 16.0667M10.7334 13.4L8.06669 16.0667M12.0667 1.40002H5.66669C4.17322 1.40002 3.42648 1.40002 2.85605 1.69068C2.35428 1.94633 1.94633 2.35428 1.69068 2.85605C1.40002 3.42648 1.40002 4.17322 1.40002 5.66669V21.1334C1.40002 22.6268 1.40002 23.3736 1.69068 23.944C1.94633 24.4458 2.35428 24.8538 2.85605 25.1094C3.42648 25.4 4.17322 25.4 5.66669 25.4H15.8C17.2935 25.4 18.0403 25.4 18.6107 25.1094C19.1124 24.8538 19.5204 24.4458 19.776 23.944C20.0667 23.3736 20.0667 22.6268 20.0667 21.1334V9.40002M12.0667 1.40002L20.0667 9.40002M12.0667 1.40002V7.26669C12.0667 8.01342 12.0667 8.3868 12.212 8.67201C12.3399 8.92289 12.5438 9.12687 12.7947 9.25471C13.0799 9.40003 13.4532 9.40002 14.2 9.40002H20.0667"
    stroke="currentColor" stroke-width="1.2" stroke-linecap="round" stroke-linejoin="round" />
</svg>